# xmcd CD database file
#
# Track frame offsets:
#	150
#	16397
#	35372
#	53457
#	73441
#	85835
#	107463
#	119821
#	131662
#	146165
#	160402
#	176772
#
# Disc length: 2574 seconds
#
# Revision: 1
# Processed by: cddbd v1.5.2PL0 Copyright (c) Steve Scherf et al.
# Submitted via: CDex 1.70beta2
#
DISCID=ac0a0c0c
DTITLE=Emma - Den første dagen
DYEAR=2008
DGENRE=Country
TTITLE0=Den samme gamle
TTITLE1=Kjæresten (duett med Jørn Hoel)
TTITLE2=Fotballgær'n skrulling
TTITLE3=Over hav over land
TTITLE4=Ut på tur
TTITLE5=Første dagen(i resten av et liv)
TTITLE6=Damo di
TTITLE7=No ska livet leves
TTITLE8=Plassen min
TTITLE9=Storkar
TTITLE10=Vi bi de siste som går
TTITLE11=Kos oss
EXTD=YEAR: 2008
EXTT0=
EXTT1=
EXTT2=
EXTT3=
EXTT4=
EXTT5=
EXTT6=
EXTT7=
EXTT8=
EXTT9=
EXTT10=
EXTT11=
PLAYORDER=
